<?xml version="1.0" standalone="no"?>
<!DOCTYPE svg PUBLIC "-//W3C//DTD SVG 20010904//EN"
 "http://www.w3.org/TR/2001/REC-SVG-20010904/DTD/svg10.dtd">
<svg version="1.0" xmlns="http://www.w3.org/2000/svg"
 width="97.000000pt" height="78.000000pt" viewBox="0 0 97.000000 78.000000"
 preserveAspectRatio="xMidYMid meet">

<g transform="translate(0.000000,78.000000) scale(0.100000,-0.100000)"
fill="#000000" stroke="none">
<path d="M454 610 l39 -22 -69 -35 c-62 -32 -72 -34 -99 -23 -55 22 -71 21
-30 -1 l39 -22 -68 -34 -69 -35 -39 18 c-21 9 -41 15 -43 12 -3 -3 8 -11 25
-18 38 -16 38 -24 0 -40 -30 -12 -30 -13 -30 -91 0 -44 2 -79 5 -79 2 0 20 8
40 17 l35 17 0 73 c0 40 2 73 5 73 10 0 125 -60 125 -65 0 -2 -13 -11 -30 -20
-30 -15 -30 -17 -30 -95 0 -44 2 -80 4 -80 3 0 21 9 40 21 36 21 36 22 36 90
0 54 3 69 15 69 18 0 125 -52 125 -61 0 -4 -13 -12 -30 -19 -16 -7 -30 -18
-31 -24 -2 -25 3 -141 6 -144 1 -2 19 5 39 14 l36 18 0 73 c0 40 3 73 8 73 4
0 22 -9 40 -20 31 -19 32 -22 34 -92 1 -49 3 -59 5 -30 4 38 8 45 39 60 l35
16 -2 71 c-1 38 1 69 5 69 4 -1 20 -7 36 -14 30 -12 30 -14 32 -94 1 -50 3
-64 5 -35 4 41 8 48 38 62 l35 17 0 75 0 75 40 -20 39 -20 4 -72 c2 -40 3 -24
1 36 -1 59 -5 111 -8 114 -4 3 -22 -2 -41 -11 -34 -16 -38 -16 -75 3 -35 18
-40 25 -40 56 0 20 -3 34 -7 32 -5 -2 -20 -10 -35 -17 -24 -12 -33 -12 -68 4
-37 16 -40 21 -40 56 l0 39 -35 -17 c-28 -14 -42 -15 -63 -6 -57 23 -66 23
-28 3z m121 -62 c36 -18 65 -35 65 -38 0 -5 -125 -70 -135 -70 -3 0 -5 32 -5
70 0 39 2 70 5 70 3 0 35 -15 70 -32z m-95 -118 c0 -5 -64 -36 -117 -57 -10
-4 -13 12 -13 61 l0 66 65 -32 c36 -18 65 -35 65 -38z m250 40 c33 -17 60 -32
60 -35 0 -6 -116 -65 -127 -65 -4 0 -8 29 -8 65 0 36 4 65 8 65 4 0 34 -14 67
-30z m-135 -88 l49 -25 -64 -33 c-36 -18 -68 -33 -72 -34 -5 0 -8 30 -8 66 0
75 -1 75 95 26z"/>
</g>
</svg>
